<svg xmlns="http://www.w3.org/2000/svg" width="158.157" height="166.483" viewBox="0 0 158.157 166.483"><defs><style>.a{fill:#fed600;}.a,.c{fill-rule:evenodd;}.b{fill:none;stroke:#fed600;stroke-miterlimit:22.93;stroke-width:0.57px;}.c{fill:#141414;}</style></defs><g transform="translate(-0.04 -2)"><path class="a" d="M74.726,2.188h0a53.125,53.125,0,0,0-5.964.7c-2.093.2-4.478.345-6.278.7A68.913,68.913,0,0,0,51.769,6.813c-6.006,2.354-12.975,6.142-17.642,11.2-4.5,4.918-10.966,13.812-10.537,22.455.094,1.946-.063,2.208,1.36,2.386,7.837.952,35.848.7,44.146.7a35.814,35.814,0,0,0,3.777-.366c1.36-.084,2,.366,3.725.377,1.214,0,3.139-.136,3.715-.126l16.323.1c1.674,0,2.762.439,3.966.283,4.269-.534,8.287,0,11.981-.272a26.011,26.011,0,0,1,4.081-.387c2.04.1,1.538.335,3.463.084,7.325-.942,9.668,1.256,9.668-4.457,0-9.1-.984-10.861-5.054-16.742l-7.6-7.931c-1.371-1.046-2.093-1.046-3.369-1.915-.879-.586-.575-.555-1.235-1.12a5.734,5.734,0,0,0-1.685-.952l-7.1-3.034c-1.235-.408-3.076-.575-4.008-1.161-2.03-1.277-.345-.534-3.694-1.182l-4.29-.837c-.973-.188-3.139-.439-4.321-.806a17.5,17.5,0,0,0-1.831-.785c-1.664-.345-.513.23-2.093.23A33.273,33.273,0,0,1,78.912,2l-1.371.188-.209.115c-.073,0-.157.073-.22.084-1.287.356-.827-.2-2.386-.2m2.815,7.691h0c1.392-.91,1.821-.23,2.2.366-.188.816-.073,1.046-.942,1.046C77.614,11.344,77.782,10.371,77.541,9.879ZM61.281,13.51h0c.136-2.03.638-2.877,2.5-2.919a3.631,3.631,0,0,1-.68,2.522C62.432,14,62.264,13.8,61.281,13.51Zm23.773-1.454h0c2.4.23,1.381,2.626,1.256,3.286h-.942c-.45-2.229-.837-.732-.314-3.265Zm-14.994.021h0c2.093-.575,3.139,1.465,1.873,3.652C70.332,15.236,70.06,14.337,70.06,12.076Zm26.567.387h0c1.151.356.659.377,1.57,1.046a4.437,4.437,0,0,1-1.256,3.3C96.093,14.943,95.821,14.221,96.627,12.464Zm-46.3,5.462h0c-2.229,0,.879-3.673,1.423-3.84.868-.262.7.722.429,1.915C51.937,17,51.455,17.926,50.325,17.926Zm26.6-1.046h0a5.41,5.41,0,0,1,1.559,3.3,1.894,1.894,0,0,1-1.454-1.256c-.6-1.371-.084-1.141-.1-2.093Zm27.205,1.831h0c-.743,1.046-2.825,1.925-1.737-.492,1.214-2.721,2.741-.921,1.747.439ZM90.673,20.175h0V18.292a3.139,3.139,0,0,1,1.883-.732c-.01.732.366,1.863-1.873,2.564Zm-29.4.366h0c2.354,0-.283,4.185-.984,3.327-.209-.314-.314-3.38.994-3.38Zm48.8,2.93h0c-1.046,0-.439-1.57-.314-2.2,1.821,0,1.747.136,2.5,1.465a4.844,4.844,0,0,1-2.176.68Zm-70.106,0h0c0-3.223.555-3.076,1.256-3.3.188,2.637.649,1.12,0,4.395H40.28c-.063-.481-.283-1.057-.283-1.151Zm26.284,2.564h0a3.411,3.411,0,0,1,0-2.229c.324-.994.523-1.329,1.611-1.434.335,1.716.408,3.411-1.58,3.61Zm19.4-1.465h0c0-1.915-.115-.471.314-1.465,1.915.241,1.653,2.333,1.559,3.662a2.511,2.511,0,0,1-1.842-2.25Zm18.144,2.2h0c0-1.2.628-1.381,1.57-1.465.8,1.664,0,2.469-.314,4.028-.921-.293-.481.084-.91-.774a6.278,6.278,0,0,1-.314-1.842ZM52.523,27.5h0c-.732,3.694-4.792,2.951-1.946.262.774-.785,1-.575,1.936-.314Zm41.289,3.966h0c.314-1.57.858-2.877,2.2-3.286l.555.806A2.658,2.658,0,0,1,93.812,31.465Zm-15.7-2.919c.7,0,.691.283,1.256.732-.4,1.716-1.622,2.585-3.139.722.45-.67.973-1.454,1.936-1.454Z" transform="translate(1.091)"/><path class="a" d="M121.339,79.865h0c-1.256.942-2.49-.272-3.735-.272l-13.958-.241c-3.233-.575-6.017.146-9.208.157s-6.111-.6-9.7-.377c-12.8.806-25.971.419-38.8.366-1.475,0-3.484.3-4.311.251a27.688,27.688,0,0,0-4.74-.23c-5.933.575-3.882.272-9.1,0-7.241-.419-4.081,10.464-.67,13.6,4.374,4.112,7.638,4.834,14.471,5.755,2.155.293,6.718,1.339,8.6.984,2.532-.481,6.529.513,9.208.513.534-.921.5-1.5,1.57-1.831-.314,1.36-.324.471-.628,1.831,13.6,0,30.836.889,43.225-.68,7.241-.91,19.944-.722,24.548-9.71,2.093-3.987,1.8-6.8.115-9.742-2.731,0-4.468-.366-6.885-.366M104.7,96.784c1.81-1.444,1.632-1.957,1.632,1.747Z" transform="translate(1.083 3.573)"/><path class="a" d="M23.432,45.331c0,.889.5,1.046.931,1.831,2.386,0,3.495.366,5.943.366H52.835c5.546,0,10.464-.366,15.7-.366s10.3.366,15.957.366c13.446,0,27.655.324,41-.356,1.978-.094,3.746.115,3.746-2.208,0-.879-.5-1.046-.942-1.821H104.525a18.415,18.415,0,0,0-3.139-.377c-1.371,0-1.863.356-2.783.324s-1.758-.314-3.139-.3H81.578c-3.139,0-6.278-.586-9.7-.377a30.25,30.25,0,0,1-3.139.4c-1.381,0-2.166-.324-3.055-.272-9.417.607-27.352.324-37.617.241-2.354,0-4.688-.146-4.688,2.564" transform="translate(1.082 1.871)"/><path class="a" d="M130.015,98.108c2.637,0,6.885-3.987,8.81-5.8.712-.67,1.046-1.277,1.779-1.936,1.392-1.3,4.437-4.709,4.437-6.906,0-1.611-1.151-3.139-2.229-3.139s-8.643,5.043-9.794,5.975a28.523,28.523,0,0,0-5.232,5.567c-2.8,4.049.743,6.278,2.25,6.278" transform="translate(5.873 3.631)"/><path class="a" d="M4.29,83.476c0,2.323,9.334,14.272,15.7,14.272,2.825,0,5.755-4.185-3.819-11.635-1.329-1.046-7.942-5.933-9.323-5.933s-2.5,1.664-2.5,3.3" transform="translate(0.197 3.624)"/><path class="a" d="M19.3,84.8a1.883,1.883,0,0,0,1.622-.67C24.06,80.9,17.782,70.933,15.564,67.94c-2.428-3.317-8.5.439,0,13.6.607.942,2.522,3.286,3.756,3.286" transform="translate(0.517 3.004)"/><path class="a" d="M127.481,82.262a2.281,2.281,0,0,0,2.5,2.532c4.028,0,12.316-17.935,5.012-17.935-1.978,0-7.513,11.091-7.513,15.371" transform="translate(5.907 3.007)"/><path class="a" d="M117.041,79.846c-.419-.366.659-.366-.931-.366v.366Z" transform="translate(5.381 3.592)"/><path class="a" d="M125.76,76.618h0a21.734,21.734,0,0,1-7.136-1.193c-2.312-.785-3.463-2.208-3.463-4.185s.9-3.066,2.72-3.066a18.719,18.719,0,0,1,3.191,1.046,13.854,13.854,0,0,0,4.824,1.046q2.04,0,2.04-1.758a2.239,2.239,0,0,0-1.381-1.915,24.514,24.514,0,0,0-3.882-1.6,17.1,17.1,0,0,1-3.139-1.266,6.508,6.508,0,0,1-2.909-5.744,8.109,8.109,0,0,1,2.428-6.111,7.806,7.806,0,0,1,5.608-2.292,19.463,19.463,0,0,1,5.608.722c2.982.963,4.185,2.375,3.61,4.259s-1.643,2.752-3.191,2.616a19.1,19.1,0,0,1-2.281-.8,10.547,10.547,0,0,0-3.7-.806,1.434,1.434,0,0,0-1.622,1.622c0,.691.46,1.277,1.371,1.779a26.975,26.975,0,0,0,3.851,1.632,16.668,16.668,0,0,1,3.139,1.36A6.843,6.843,0,0,1,134.382,68a8.214,8.214,0,0,1-2.522,6.341,8.538,8.538,0,0,1-6.111,2.281m-15.7-26.305h0a3.641,3.641,0,0,0-2.333,1.852,29.915,29.915,0,0,0-1.674,3.327,2.093,2.093,0,0,0,.523,2.773,2.48,2.48,0,0,0,2.982,0,19,19,0,0,0,3.045-2.093,3.139,3.139,0,0,0,1.235-2.741,3.443,3.443,0,0,0-1.256-2.49,2.752,2.752,0,0,0-2.522-.628ZM88.52,71.9h0l-.732,1.988c-.649,1.768-1.716,2.647-3.2,2.647a3.61,3.61,0,0,1-3.139-1.381,4.52,4.52,0,0,1-.963-2.511,5.326,5.326,0,0,1,.471-2.176L88.782,52.9a3.777,3.777,0,0,1,7.22,0l7.921,17.568a5.159,5.159,0,0,1,.492,2.2,4.614,4.614,0,0,1-.879,2.469,3.589,3.589,0,0,1-3.2,1.381c-1.507,0-2.595-.879-3.244-2.647l-.722-1.988Zm5.535-6.278h0l-1.632-4.51-1.653,4.6ZM71.517,63.329h0L77.8,70.35a4.384,4.384,0,0,1,1.329,2.783,3.139,3.139,0,0,1-1.172,2.333,3.652,3.652,0,0,1-2.522,1.046,4.018,4.018,0,0,1-2.8-1.59L64.559,66v7.136q0,3.38-3.777,3.38c-2.532,0-3.788-1.13-3.788-3.38V53.63c0-2.26,1.256-3.39,3.788-3.39s3.777,1.13,3.777,3.39v7.052L72.626,51.8a4.018,4.018,0,0,1,2.8-1.611,3.7,3.7,0,0,1,2.5,1.046,3.139,3.139,0,0,1,1.182,2.344A4.332,4.332,0,0,1,77.8,56.35Zm-16.48,9.825h0c0,2.25-1.266,3.38-3.777,3.38s-3.788-1.13-3.788-3.38V53.63c0-2.26,1.256-3.39,3.788-3.39s3.777,1.13,3.777,3.39ZM38.3,63.329l6.226,7.021a4.353,4.353,0,0,1,1.339,2.783,3.139,3.139,0,0,1-1.172,2.333,3.652,3.652,0,0,1-2.522,1.046,3.987,3.987,0,0,1-2.8-1.59L31.3,66v7.136q0,3.38-3.788,3.38t-3.777-3.38V53.63q0-3.39,3.777-3.39T31.3,53.63v7.052L39.363,51.8a4.018,4.018,0,0,1,2.8-1.611,3.715,3.715,0,0,1,2.5,1.046,3.139,3.139,0,0,1,1.172,2.344,4.332,4.332,0,0,1-1.318,2.773Z" transform="translate(1.098 2.206)"/><path class="a" d="M19.3,118.768l-13.6,11.3c30.794-3.453,98.358-12.033,138.025-5.567L137.3,111.59l11.719-11.51c-47.086.439-101.12,7.126-140.3,5.159Z" transform="translate(0.262 4.547)"/><path class="b" d="M19.3,118.768l-13.6,11.3c30.794-3.453,98.358-12.033,138.025-5.567L137.3,111.59l11.719-11.51c-47.086.439-101.12,7.126-140.3,5.159Z" transform="translate(0.262 4.547)"/><path class="c" d="M131.109,112.243h0l-1.413-5.1-1.182,5.232Zm3.683,5.357h0l-2.093.1-.91-3.139-3.851.188-.722,3.223-2.093.1,3.4-14.157,2.093-.094Zm-12.452.617h0l-.324-13.969,1.936-.094.335,13.969Zm-7.869-7.68h0l1.434-.073a5.168,5.168,0,0,0,1.737-.251,1.255,1.255,0,0,0,.534-.617,2.542,2.542,0,0,0,.167-1.046,2.218,2.218,0,0,0-.283-1.13,1.046,1.046,0,0,0-.743-.5,9.416,9.416,0,0,0-1.423,0l-1.507.073Zm-1.758,8.12h0l-.335-13.969,4.091-.2a4.855,4.855,0,0,1,2.25.272,2.49,2.49,0,0,1,1.151,1.277,5.462,5.462,0,0,1,.471,2.187,4.96,4.96,0,0,1-.575,2.626,2.909,2.909,0,0,1-1.863,1.381,4.834,4.834,0,0,1,1.046,1.12,16.666,16.666,0,0,1,1.161,2.218l1.235,2.668-2.323.115-1.465-2.982a17.22,17.22,0,0,0-1.046-2,1.538,1.538,0,0,0-.6-.555,2.291,2.291,0,0,0-.984-.1h-.387l.136,5.828Zm-8.957.439h0l-.324-13.958,7.115-.356v2.365l-5.169.251.073,3.139,4.8-.23v2.354l-4.8.241.094,3.788,5.347-.272.063,2.365ZM93.733,105.609h0l1.946-.094.178,7.565a17.269,17.269,0,0,0,.126,2.333,2.49,2.49,0,0,0,.617,1.35,1.81,1.81,0,0,0,2.511-.094,2.427,2.427,0,0,0,.471-1.235,22.958,22.958,0,0,0,0-2.375l-.178-7.733,1.946-.094.178,7.324a30.16,30.16,0,0,1-.073,3.568,5.085,5.085,0,0,1-.544,1.779,3.348,3.348,0,0,1-1.1,1.193,3.61,3.61,0,0,1-1.831.523,3.725,3.725,0,0,1-2.093-.366,3.139,3.139,0,0,1-1.151-1.141,4.6,4.6,0,0,1-.576-1.528,23.615,23.615,0,0,1-.272-3.537Zm-5.765,9.135h0l-.052-2.365,4.185-.209.126,5.577a5.358,5.358,0,0,1-1.726,1.6,4.793,4.793,0,0,1-2.323.774,3.9,3.9,0,0,1-2.647-.8,5.232,5.232,0,0,1-1.747-2.553,11.51,11.51,0,0,1-.649-3.7,11.259,11.259,0,0,1,.523-3.83,5.828,5.828,0,0,1,1.779-2.7,3.809,3.809,0,0,1,2.292-.806,3.505,3.505,0,0,1,2.815.952,5.472,5.472,0,0,1,1.371,2.961l-1.925.628a3.066,3.066,0,0,0-.806-1.59,1.768,1.768,0,0,0-1.4-.534,2.386,2.386,0,0,0-2.03,1.224,6.686,6.686,0,0,0-.659,3.516,7.168,7.168,0,0,0,.837,3.7,2.208,2.208,0,0,0,2.019,1.141,2.5,2.5,0,0,0,1.214-.408,4.081,4.081,0,0,0,1.046-.889V114.66Zm-12.284-2.323h0l1.434-.073a5.357,5.357,0,0,0,1.737-.262,1.256,1.256,0,0,0,.534-.617,2.459,2.459,0,0,0,.178-1.046,2.2,2.2,0,0,0-.293-1.13,1.1,1.1,0,0,0-.743-.513,11.074,11.074,0,0,0-1.413,0l-1.517.073Zm-1.758,8.151h0L73.6,106.6l4.081-.2a4.866,4.866,0,0,1,2.25.262,2.511,2.511,0,0,1,1.151,1.287,5.409,5.409,0,0,1,.471,2.176,4.96,4.96,0,0,1-.565,2.626,2.93,2.93,0,0,1-1.873,1.381,5.117,5.117,0,0,1,1.046,1.12,16.369,16.369,0,0,1,1.151,2.218l1.3,2.7-2.323.115-1.454-2.982c-.534-1.046-.889-1.727-1.046-2a1.538,1.538,0,0,0-.6-.555,2.313,2.313,0,0,0-.984-.1h-.4l.136,5.828ZM63.9,107.147h0l1.946-.094.178,7.576a12.813,12.813,0,0,0,.126,2.323,2.459,2.459,0,0,0,.617,1.35,1.611,1.611,0,0,0,1.287.46,1.58,1.58,0,0,0,1.224-.555,2.354,2.354,0,0,0,.471-1.224,23.177,23.177,0,0,0,0-2.386l-.178-7.722,1.946-.1.178,7.325a30.081,30.081,0,0,1-.073,3.568,5.137,5.137,0,0,1-.544,1.789,3.526,3.526,0,0,1-1.046,1.193,3.683,3.683,0,0,1-1.831.513,3.725,3.725,0,0,1-2.093-.366,3.243,3.243,0,0,1-1.151-1.141,4.75,4.75,0,0,1-.576-1.528,23.492,23.492,0,0,1-.272-3.537Zm-7.565,8.245h0l.094,3.746,1.8-.094a6.393,6.393,0,0,0,1.329-.146,1.224,1.224,0,0,0,.691-.6,2.375,2.375,0,0,0,.241-1.2,2.459,2.459,0,0,0-.23-1.046,1.266,1.266,0,0,0-.628-.607,4.28,4.28,0,0,0-1.726-.115Zm-.126-5.535h0l.073,3.212,1.277-.063a10.456,10.456,0,0,0,1.4-.115,1.2,1.2,0,0,0,.774-.534,1.988,1.988,0,0,0,.251-1.046,1.915,1.915,0,0,0-.262-1.046,1.046,1.046,0,0,0-.743-.45H57.33Zm-2-2.229h0l3.84-.188a7.449,7.449,0,0,1,1.706.052,2.093,2.093,0,0,1,1.046.523,3.421,3.421,0,0,1,.774,1.13,4.614,4.614,0,0,1,0,3.432,2.919,2.919,0,0,1-.952,1.266A2.626,2.626,0,0,1,62,115.057a4.436,4.436,0,0,1,.523,2.093,6.005,6.005,0,0,1-.262,1.873,3.882,3.882,0,0,1-.806,1.486,2.334,2.334,0,0,1-1.287.722c-.324.063-1.1.136-2.333.209l-3.275.167ZM43.33,122.141h0l-.324-13.948,2.909-.146,1.946,9.417,1.486-9.606,2.919-.146.324,13.969-1.8.084-.262-10.987L48.886,121.8l-1.863.094-2.145-10.872.251,11Zm-4.667-5.357h0l-1.454-5.1-1.182,5.232Zm3.683,5.368h0l-2.093.1-.91-3.139-3.851.188-.722,3.223-2.093.094,3.411-14.147,2.093-.1Zm-18.332.9-.324-13.958,1.946-.1.126,5.5,3.788-.188-.126-5.493,1.946-.1.324,13.969-1.946.094-.146-6.1-3.777.188.136,6.1Z" transform="translate(1.096 4.72)"/><path class="a" d="M148.706,138.807h0a8.136,8.136,0,0,1-.052,1.046v.8c.23,1.737,1.046,2.532,2.459,2.4q2.689-.251,6.425-4.667l.659,1.235c-.439.555-1.046,1.287-1.747,2.187a23.3,23.3,0,0,1-2.093,2.386,11.082,11.082,0,0,1-2.292,1.747,6.341,6.341,0,0,1-2.543.837,3.338,3.338,0,0,1-2.626-.764,4.185,4.185,0,0,1-1.318-2.417c-.136-.774-.209-1.277-.23-1.517a17.1,17.1,0,0,1,.659-6.613A25.311,25.311,0,0,1,149,129.086a47.144,47.144,0,0,1,5.012-6.4c1.256-1.339,2.093-2.093,2.553-2.093s.691.471.8,1.517a11.112,11.112,0,0,1-.5,4.416,19.882,19.882,0,0,1-1.883,4.185c-.8,1.3-1.747,2.7-2.867,4.185a36.623,36.623,0,0,1-3.359,3.892m.5-3.62h0a22.09,22.09,0,0,0,3.055-4.185,19.881,19.881,0,0,0,2.323-5.232,11.772,11.772,0,0,0-2.093,2.49,27.452,27.452,0,0,0-2.03,3.568,20.386,20.386,0,0,0-1.3,3.327Zm-9-.1h0c.858-.377,1.266-.732,1.235-1.046a1.664,1.664,0,0,0-.952-1.339,3.139,3.139,0,0,0-1.81-.377h-.4a16.942,16.942,0,0,0-3.872,1.339,27.988,27.988,0,0,0-4.269,2.5,18.835,18.835,0,0,0-3.558,3.265,7.324,7.324,0,0,0-1.737,3.505,3.223,3.223,0,0,0,0,.963,4.478,4.478,0,0,0,.837,2.156,6.6,6.6,0,0,0,1.706,1.706,2.7,2.7,0,0,0,1.611.576,8.433,8.433,0,0,0,1.873-1.318c.732-.638,1.779-1.632,3.139-2.961l2.176-2.093.084.073a12.985,12.985,0,0,0-1.12,4.813,1.936,1.936,0,0,0,1.768,1.852,6.33,6.33,0,0,0,2.794-1.318,27.877,27.877,0,0,0,3.348-2.836,33.829,33.829,0,0,0,2.721-2.93l-.471-1.622a26.694,26.694,0,0,1-3.233,2.825,5.232,5.232,0,0,1-2.4,1.046c-.638,0-1.046-.3-1.046-.837,0-.91.628-2.344,2.019-4.321a3.442,3.442,0,0,0,.785-2.229,1.643,1.643,0,0,0-1.277-1.423Zm-2.3,1.36h0v-.094q-3.327,1.559-5.232,2.553a14.114,14.114,0,0,0-3.442,2.564,4.185,4.185,0,0,0-1.35,3.359.774.774,0,0,0,.8.732q2.072-.314,9.187-9.145ZM118.236,140.4h0l-.1-.084a18.635,18.635,0,0,0-2,1.978c-.659.764-1.256,1.528-1.81,2.271s-1.13,1.6-1.758,2.532-1.046,1.486-1.109,1.643a3.526,3.526,0,0,1-2.009,1.371,1.831,1.831,0,0,1-1.517-.889,5.378,5.378,0,0,1-.879-2.532,9.658,9.658,0,0,1,.5-3.767,14.126,14.126,0,0,1,1.664-3.568c.712-1.046,1.151-1.632,1.329-1.852a2.093,2.093,0,0,1,.712-.576,3.213,3.213,0,0,1,1.266-.324l.91-.084c.785-.073,1.2.167,1.256.732a2.741,2.741,0,0,1-.607,1.674c-.45.659-1.109,1.549-1.978,2.647a17.41,17.41,0,0,0-1.611,2.281,4.111,4.111,0,0,0-.178.544c0,.178.157.293.439.356a.889.889,0,0,0,.6-.46c.837-1.182,1.57-2.145,2.208-2.888s1.58-1.685,2.836-2.867a24.812,24.812,0,0,1,2.857-2.584,9.909,9.909,0,0,1,3.139-2.093c.188,0,.46.3.816.984a4.887,4.887,0,0,1,.628,1.873,1.381,1.381,0,0,1,0,.649,22.033,22.033,0,0,1-1.632,2.354,31.173,31.173,0,0,0-1.873,2.752,3.568,3.568,0,0,0-.576,1.988l.167.335a1.161,1.161,0,0,0,.22.356.888.888,0,0,0,.3.167,4.855,4.855,0,0,0,2.093-1.308q1.318-1.193,3.453-3.317l.481,1.7c-1.277,1.538-2.375,2.836-3.317,3.872a21.976,21.976,0,0,1-2.836,2.647,5.232,5.232,0,0,1-2.543,1.2,1.674,1.674,0,0,1-.973-.136,1.706,1.706,0,0,1-.649-.544,5.117,5.117,0,0,1-.492-1.046c-.167-.45-.251-.68-.272-.711a6.394,6.394,0,0,1,.345-2.239,15.506,15.506,0,0,1,.963-2.344C117.127,142.4,117.619,141.475,118.236,140.4Zm-16.051-1.706h0c.848-.377,1.266-.732,1.235-1.046a1.685,1.685,0,0,0-.952-1.339,3.139,3.139,0,0,0-1.81-.387h-.4a16.616,16.616,0,0,0-3.872,1.339,27.209,27.209,0,0,0-4.259,2.595,18.488,18.488,0,0,0-3.558,3.265,7.418,7.418,0,0,0-1.726,3.453,4.185,4.185,0,0,0,0,.963,4.531,4.531,0,0,0,.848,2.093,6.153,6.153,0,0,0,1.7,1.737,2.606,2.606,0,0,0,1.6.575,8.025,8.025,0,0,0,1.883-1.308c.722-.638,1.779-1.632,3.139-2.972l2.176-2.093.094.073a12.985,12.985,0,0,0-1.12,4.813,1.957,1.957,0,0,0,1.758,1.852,6.278,6.278,0,0,0,2.8-1.318,28.886,28.886,0,0,0,3.348-2.836,35.582,35.582,0,0,0,2.721-2.93l-.471-1.622a26.8,26.8,0,0,1-3.244,2.825,5.158,5.158,0,0,1-2.386,1.046c-.638,0-1.046-.3-1.046-.837q-.063-1.371,2.019-4.321a3.453,3.453,0,0,0,.785-2.239,1.653,1.653,0,0,0-1.256-1.381Zm-2.3,1.36h0v-.094c-2.218,1.046-3.976,1.873-5.232,2.553a13.927,13.927,0,0,0-3.453,2.574,4.123,4.123,0,0,0-1.36,3.359.785.785,0,0,0,.806.732q2.093-.293,9.25-9.124ZM79.291,150.317h0a4.109,4.109,0,0,1,.931,0,6.058,6.058,0,0,0,1.842-.513,7.922,7.922,0,0,0,1.59-.973,22.16,22.16,0,0,0,1.789-1.6l1.915-1.894.513,1.611a32.8,32.8,0,0,1-5.232,5.043A8.622,8.622,0,0,1,78.6,153.8a8.58,8.58,0,0,1-2.961-.335,6.884,6.884,0,0,1-2.532-1.36,5,5,0,0,1-1.517-2.166,3.045,3.045,0,0,1-.879.565c-.377,0-.586-.188-.628-.67a1.863,1.863,0,0,1,.513-1.381l8.2-9.093a2.365,2.365,0,0,1,.565-1.873,2.323,2.323,0,0,1,1.549-.848c.952-.084,1.454.251,1.528,1.046a14.172,14.172,0,0,0,.6,2.009,13.6,13.6,0,0,1,.68,2.846Q84.178,146.7,79.291,150.317Zm.513-6.09h0l.084.889q.251,2.637-2.8,4.52l-.732-.816a5.486,5.486,0,0,0-.774-.743,2.281,2.281,0,0,0-.785-.377,3.317,3.317,0,0,0-1.046-.094c.387-.4.952-1.046,1.706-1.883l2.093-2.407c.638-.743,1.161-1.3,1.559-1.685ZM63.062,148.8h0l2.218-1.046q.816-.408,2.009-1.13a17,17,0,0,0,2.239-1.632,7.921,7.921,0,0,0,1.622-1.9,3.882,3.882,0,0,0,.691-2.49c-.136-1.36-1.235-1.946-3.327-1.747a10.234,10.234,0,0,0-4.991,2.229,12.808,12.808,0,0,0-3.558,4.447,9.354,9.354,0,0,0-1.046,5.023,5.891,5.891,0,0,0,1.632,3.61,4.039,4.039,0,0,0,3.4,1.13,7.942,7.942,0,0,0,2.982-.973,16.879,16.879,0,0,0,3.369-2.49A33.485,33.485,0,0,0,74,147.638l-.555-1.57a41.386,41.386,0,0,1-4.185,3.767,9.239,9.239,0,0,1-2.982,1.622,3.046,3.046,0,0,0-.722.146,3.317,3.317,0,0,1-1.9-.419A1.706,1.706,0,0,1,62.8,149.8a8.894,8.894,0,0,1,.23-.984Zm-.1-1.9h0A13.6,13.6,0,0,0,65.919,145a9.648,9.648,0,0,0,1.883-2.03,2.574,2.574,0,0,0,.575-1.434.3.3,0,0,0-.052-.2.261.261,0,0,0,0-.073,5.734,5.734,0,0,0-2.8,1.6,9.187,9.187,0,0,0-2.595,4.049Zm-12.169-3.034h0l-1.726.167a9.865,9.865,0,0,0-2.093.45,30.872,30.872,0,0,1,1.538-3.055,5.849,5.849,0,0,1,1.235-1.57,4.186,4.186,0,0,1,1.434-.712c.513-.136,1.381-.293,2.585-.481a10.045,10.045,0,0,1,1.967-2.993,3.61,3.61,0,0,1,2.093-.921c.722-.073,1.12.136,1.161.617a5.881,5.881,0,0,1-1.235,2.794l2.543-.073c-.272.712-.575,1.486-.9,2.312a8.047,8.047,0,0,1-.973,1.863,3.244,3.244,0,0,1-1.224.963,6.979,6.979,0,0,1-2.093.45H54.084a22.079,22.079,0,0,0-2.3,4.594,9.679,9.679,0,0,0-.659,3.348,2.093,2.093,0,0,0,.46.952,1.81,1.81,0,0,0,.931.366,4.018,4.018,0,0,0,1.747-.91c.659-.523,2.229-1.883,4.73-4.081l.429,1.768c-1.287,1.454-2.438,2.689-3.474,3.694a19.014,19.014,0,0,1-3.233,2.553,7.66,7.66,0,0,1-3.286,1.2,2.093,2.093,0,0,1-1.622-.7,2.972,2.972,0,0,1-.68-1.758,9.721,9.721,0,0,1,.659-4.1l-.084-.073L45.87,152.41l-.628-1.517a34.793,34.793,0,0,0,3.359-3.526,19.671,19.671,0,0,0,2.155-3.484Zm-10.6,3.411h0a25.927,25.927,0,0,0-2.428,3.913,6.467,6.467,0,0,0-.586,3.474,3.275,3.275,0,0,0,1.193,2.019,2.7,2.7,0,0,0,1.894.555,7.879,7.879,0,0,0,3.265-2.019,30.344,30.344,0,0,0,4.416-4.9l-.4-1.5q-3.735,3.987-5.232,4.185a2.093,2.093,0,0,1-.889-.283,1.454,1.454,0,0,1-.471-.764,7.325,7.325,0,0,1,.712-2.292,9.073,9.073,0,0,1,.984-1.444l1.381-1.559a4.552,4.552,0,0,0,.952-1.245,1.915,1.915,0,0,0,0-.732,4.415,4.415,0,0,0-.544-1.789,1.235,1.235,0,0,0-1.277-.712,9.541,9.541,0,0,0-1.046.188l-1.978.45-2.564.586a2.522,2.522,0,0,0,.209-1.109.587.587,0,0,0-.7-.659,2.681,2.681,0,0,0-.753.22A10.077,10.077,0,0,0,33.4,145a5.389,5.389,0,0,0-.942,3.055,1.046,1.046,0,0,0,1.235.984,15.183,15.183,0,0,1-2.4,3.223l.314,1.716c.272-.314.806-.889,1.59-1.727s1.371-1.5,1.758-1.988A10.9,10.9,0,0,0,36,148.57c.188-.073.743-.262,1.674-.544s1.737-.544,2.407-.785ZM17.525,145.41h0l6.278-1.046L28.6,134.35Zm3.746,4.374-8.632,1.161-7.764,9.313-.67.827a8.643,8.643,0,0,1-.732.806,4.342,4.342,0,0,1-.91.691,3.14,3.14,0,0,1-1.046.387c-.931.084-1.434-.126-1.475-.659a3.2,3.2,0,0,1,.46-1.653,12.829,12.829,0,0,1,1.266-1.967,7.742,7.742,0,0,1,1.371-1.423c1.046-.879,1.768-1.4,2-1.57a7.976,7.976,0,0,1,1.141-.638L9.07,151.3a13.988,13.988,0,0,0-1.789.335q-2.04.2-2.292-.628a2.668,2.668,0,0,1,.387-1.046,13.487,13.487,0,0,1,2.647-3.286,7.325,7.325,0,0,1,4.269-1.873q1.046-.094,1.046.22c0,.115-.063.22-.241.335a1.633,1.633,0,0,1-.68.209c-1.329.209-1.967.46-1.946.753s.262.314.722.335a15.2,15.2,0,0,1,2.428-.4l6.351-6.477,2.093-2.093c.9-.879,1.81-1.737,2.731-2.605s1.8-1.643,2.637-2.344,1.622-1.339,2.375-1.9a3.809,3.809,0,0,1,1.664-.732c1.046-.094,1.549.46,1.674,1.674a2.543,2.543,0,0,1-.084.973L28.124,143.83l2.511-.356,1.193.167A26.6,26.6,0,0,0,29.38,148.5l-3.233.471L24.054,154.2a.984.984,0,0,0,.774.534,2.406,2.406,0,0,0,1.046-.555c.377-.3,1.141-.984,2.292-2.03l.753,1.046q-4.677,5.682-7.806,5.985c-1.172,0-1.873-.732-2.093-2.093a7.1,7.1,0,0,1,.419-2.469Z" transform="translate(0 5.497)"/></g></svg>