<svg xmlns="http://www.w3.org/2000/svg" width="39.04" height="30.681" viewBox="0 0 39.04 30.681">
  <g id="Grupo_2258" data-name="Grupo 2258" transform="translate(-1314.262 -161.754)">
    <g id="Grupo_2250" data-name="Grupo 2250">
      <path id="Caminho_1896" data-name="Caminho 1896" d="M1345.861,192.435H1321.7a2.269,2.269,0,0,1-2.222-1.828l-2.679-13.653a.629.629,0,0,1,.618-.751h32.724a.631.631,0,0,1,.618.751l-2.68,13.653A2.268,2.268,0,0,1,1345.861,192.435Zm-27.676-14.973,2.532,12.9a1.006,1.006,0,0,0,.986.811h24.158a1.007,1.007,0,0,0,.986-.811l2.532-12.9Z"/>
    </g>
    <g id="Grupo_2251" data-name="Grupo 2251">
      <path id="Caminho_1897" data-name="Caminho 1897" d="M1350.783,177.462h-34a2.522,2.522,0,0,1-2.519-2.518v-.718a2.522,2.522,0,0,1,2.519-2.518h34a2.522,2.522,0,0,1,2.519,2.518v.718A2.522,2.522,0,0,1,1350.783,177.462Zm-34-4.5a1.261,1.261,0,0,0-1.26,1.259v.718a1.261,1.261,0,0,0,1.26,1.259h34a1.26,1.26,0,0,0,1.259-1.259v-.718a1.26,1.26,0,0,0-1.259-1.259Z"/>
    </g>
    <g id="Grupo_2254" data-name="Grupo 2254">
      <g id="Grupo_2252" data-name="Grupo 2252">
        <path id="Caminho_1898" data-name="Caminho 1898" d="M1319.644,172.967a.629.629,0,0,1-.446-1.075l9.955-9.954a.629.629,0,1,1,.89.89l-9.954,9.955A.627.627,0,0,1,1319.644,172.967Z"/>
      </g>
      <g id="Grupo_2253" data-name="Grupo 2253">
        <path id="Caminho_1899" data-name="Caminho 1899" d="M1347.92,172.967a.627.627,0,0,1-.445-.184l-9.955-9.955a.63.63,0,1,1,.891-.89l9.954,9.954a.629.629,0,0,1-.445,1.075Z"/>
      </g>
    </g>
    <g id="Grupo_2255" data-name="Grupo 2255">
      <path id="Caminho_1900" data-name="Caminho 1900" d="M1333.782,189.015a.63.63,0,0,1-.63-.629v-8.125a.63.63,0,0,1,1.26,0v8.125A.63.63,0,0,1,1333.782,189.015Z"/>
    </g>
    <g id="Grupo_2256" data-name="Grupo 2256">
      <path id="Caminho_1901" data-name="Caminho 1901" d="M1326.327,189.006a.63.63,0,0,1-.627-.579l-.665-8.1a.63.63,0,0,1,1.255-.1l.665,8.106a.63.63,0,0,1-.576.679Z"/>
    </g>
    <g id="Grupo_2257" data-name="Grupo 2257">
      <path id="Caminho_1902" data-name="Caminho 1902" d="M1341.237,189.006l-.053,0a.629.629,0,0,1-.575-.679l.665-8.106a.63.63,0,0,1,1.255.1l-.665,8.1A.63.63,0,0,1,1341.237,189.006Z"/>
    </g>
  </g>
</svg>
