<svg xmlns="http://www.w3.org/2000/svg" width="45.987" height="57.536" viewBox="0 0 45.987 57.536"><defs><style>.a{fill:#ffd600;}</style></defs><g transform="translate(-3940.601 -705.001)"><g transform="translate(3940.601 705.001)"><path class="a" d="M3963.6,762.537a.948.948,0,0,1-.724-.336l-17-20.24A22.493,22.493,0,0,1,3963.094,705h1a22.493,22.493,0,0,1,17.223,36.961l-17,20.24A.95.95,0,0,1,3963.6,762.537Zm-.5-55.648a20.6,20.6,0,0,0-15.776,33.859l16.278,19.379,16.277-19.379h0A20.6,20.6,0,0,0,3964.1,706.89Z" transform="translate(-3940.602 -705.001)"/></g><g transform="translate(3950.075 713.974)"><path class="a" d="M3960.588,738.167a13.521,13.521,0,1,1,13.521-13.521A13.536,13.536,0,0,1,3960.588,738.167Zm0-25.154a11.634,11.634,0,1,0,11.632,11.634A11.647,11.647,0,0,0,3960.588,713.012Z" transform="translate(-3947.067 -711.125)"/></g></g></svg>