<svg xmlns="http://www.w3.org/2000/svg" width="23.768" height="24.51" viewBox="0 0 23.768 24.51"><defs><style>.a{fill:none;stroke:#fed500;stroke-linecap:round;stroke-linejoin:round;stroke-miterlimit:10;stroke-width:1.5px;}</style></defs><g transform="translate(0.75 0.75)"><ellipse class="a" cx="5.691" cy="5.691" rx="5.691" ry="5.691" transform="translate(5.608 5.691)"/><path class="a" d="M20.816,8.175h3.052V20.794a3.22,3.22,0,0,1-3.216,3.216H4.816A3.22,3.22,0,0,1,1.6,20.794V4.216A3.22,3.22,0,0,1,4.816,1H20.734A3.322,3.322,0,0,1,23.7,3.144l-5.361-.082a.826.826,0,0,0-.825.825L17.6,5.371" transform="translate(-1.6 -1)"/><line class="a" x2="4.536" transform="translate(0.165 9.484)"/></g></svg>