<svg xmlns="http://www.w3.org/2000/svg" width="29.086" height="36.837" viewBox="0 0 29.086 36.837">
  <g id="Grupo_2172" data-name="Grupo 2172" transform="translate(-901.634 -2687.494)">
    <path id="Caminho_1811" data-name="Caminho 1811" d="M929.854,2690.662H902.5v3.178h27.353v-3.178Zm-16.516-.868v-1.867a.436.436,0,0,1,.435-.433h4.811a.434.434,0,0,1,.432.433v1.867h11.273a.433.433,0,0,1,.431.435v4.044a.433.433,0,0,1-.431.435H929.2v27.023a2.6,2.6,0,0,1-.764,1.836h0a2.586,2.586,0,0,1-1.836.764H905.76a2.607,2.607,0,0,1-2.6-2.6v-27.023h-1.092a.436.436,0,0,1-.433-.435v-4.044a.436.436,0,0,1,.433-.435Zm4.811,0v-1.435h-3.942v1.435Zm-12.389,33.669a1.732,1.732,0,0,1-1.734-1.732v-27.023h24.3v27.023a1.727,1.727,0,0,1-.508,1.225h0a1.735,1.735,0,0,1-1.225.506Z" fill="#ff6464" fill-rule="evenodd"/>
  </g>
</svg>
