<svg xmlns="http://www.w3.org/2000/svg" width="24.954" height="24.954" viewBox="0 0 24.954 24.954"><defs><style>.a{fill:#ffd600;}</style></defs><path class="a" d="M24.954,12.156A12.273,12.273,0,0,1,6.782,22.8L0,24.954,2.211,18.43A12.032,12.032,0,0,1,.454,12.155a12.25,12.25,0,0,1,24.5,0ZM12.7,1.938A10.271,10.271,0,0,0,2.4,12.158a10.11,10.11,0,0,0,1.962,5.991L3.08,21.943l3.956-1.257A10.311,10.311,0,0,0,23,12.156,10.27,10.27,0,0,0,12.7,1.938Zm6.187,13.018c-.076-.123-.277-.2-.576-.347s-1.777-.87-2.051-.967-.477-.151-.677.148-.774.969-.95,1.169-.35.225-.65.077a8.279,8.279,0,0,1-2.416-1.479A8.964,8.964,0,0,1,9.9,11.494c-.177-.3-.018-.459.131-.607s.3-.348.451-.523a1.986,1.986,0,0,0,.3-.5.555.555,0,0,0-.025-.523c-.075-.15-.675-1.614-.926-2.211s-.5-.5-.675-.5-.375-.024-.575-.024a1.1,1.1,0,0,0-.8.371,3.334,3.334,0,0,0-1.05,2.485A5.761,5.761,0,0,0,7.954,12.55a12.3,12.3,0,0,0,5.13,4.5c3.054,1.192,3.054.794,3.6.744a3.029,3.029,0,0,0,2.026-1.415A2.476,2.476,0,0,0,18.889,14.956Z"/></svg>